<?xml version="1.0"?>
<svg xmlns="http://www.w3.org/2000/svg" viewBox="0 0 1024 1024" width="1024" height="1024">
<defs><clipPath id="sq"><rect x="0" y="0" width="1024" height="1024" rx="229" ry="229"></rect></clipPath></defs>
<defs><clipPath id="sq"><rect x="0" y="0" width="1024" height="1024" rx="229" ry="229"></rect></clipPath></defs>
<g clip-path="url(#sq)">
<defs><radialGradient id="bg_0" cx="512" cy="307" r="881" gradientUnits="userSpaceOnUse">
<stop offset="0" stop-color="#241338"></stop><stop offset="0.82" stop-color="#0B0714"></stop><stop offset="1" stop-color="#0B0714"></stop></radialGradient></defs>
<rect width="1024" height="1024" fill="url(#bg_0)"></rect>
</g>
<defs><clipPath id="sq"><rect x="0" y="0" width="1024" height="1024" rx="229" ry="229"></rect></clipPath></defs>
<g clip-path="url(#sq)">
<path d="M317 188 L317 445 A195 195 0 0 0 707 445 L707 188 A8 8 0 0 0 699 180 L597 180 L597 445 A85 85 0 0 1 427 445 L427 180 L325 180 A8 8 0 0 0 317 188 Z" fill="#FBF7F2"></path>
</g>
<defs><clipPath id="sq"><rect x="0" y="0" width="1024" height="1024" rx="229" ry="229"></rect></clipPath></defs>
<g clip-path="url(#sq)">
<circle cx="267.95" cy="808.95" r="61.45" fill="#E85D4E"></circle>
<circle cx="430.65" cy="808.95" r="61.45" fill="#F4A23C"></circle>
<circle cx="593.35" cy="808.95" r="61.45" fill="#B23A7A"></circle>
<circle cx="756.05" cy="808.95" r="61.45" fill="#7A6CE0"></circle>
</g>
<defs><clipPath id="sq"><rect x="0" y="0" width="1024" height="1024" rx="229" ry="229"></rect></clipPath></defs>
<g clip-path="url(#sq)">
<defs><radialGradient id="sh_3" cx="512" cy="-61" r="348" gradientUnits="userSpaceOnUse" gradientTransform="translate(512 -61) scale(2.207 1) translate(-512 61)">
<stop offset="0" stop-color="#FFFFFF" stop-opacity="0.9"></stop><stop offset="0.66" stop-color="#FFFFFF" stop-opacity="0"></stop></radialGradient></defs>
<rect width="1024" height="1024" fill="url(#sh_3)" opacity="0.2"></rect>
</g>
</svg>