<?xml version="1.0" encoding="UTF-8"?>
<svg xmlns="http://www.w3.org/2000/svg" viewBox="0 0 1024 1024" width="1024" height="1024">
<defs><clipPath id="sq"><rect x="0" y="0" width="1024" height="1024" rx="229" ry="229"></rect></clipPath></defs>
<g clip-path="url(#sq)">
<defs><filter id="g" x="-20%" y="-20%" width="140%" height="140%">
<feGaussianBlur in="SourceAlpha" stdDeviation="6"></feGaussianBlur><feOffset dx="0" dy="8"></feOffset>
<feComponentTransfer><feFuncA type="linear" slope="0.6"></feFuncA></feComponentTransfer>
<feMerge><feMergeNode></feMergeNode><feMergeNode in="SourceGraphic"></feMergeNode></feMerge></filter></defs>
<g filter="url(#g)"><g transform="translate(129.43 780.08) scale(0.571)"><path d="M1238-282L1238-282Q1256-272 1257.500-245.500Q1259-219 1238-178L1238-178Q1189-85 1087.500-27.500Q986 30 850 30L850 30Q766 30 722-3Q678-36 678-98L678-98Q678-135 696-180L696-180Q703-200 712-221L712-221Q645-129 571-74L571-74Q496-18 420 6Q344 30 276 30L276 30Q181 30 132.500-12Q84-54 79.500-128Q75-202 109-298L109-298L208-581Q232-649 225-675.500Q218-702 198-702L198-702Q186-702 175-697Q164-692 146-677L146-677Q123-658 107.500-654.500Q92-651 78-658L78-658Q59-668 57.500-694.500Q56-721 78-762L78-762Q125-855 224.500-912Q324-969 459-969L459-969Q559-969 606.500-930.500Q654-892 657-823.500Q660-755 627-664L627-664L529-383Q504-316 509.500-283Q515-250 554-250L554-250Q580-250 608.500-267.500Q637-285 665.500-316.500Q694-348 719.500-392.500Q745-437 766-492L766-492Q785-540 798-578.500Q811-617 818-646Q825-675 825-696L825-696Q825-729 813.500-756.500Q802-784 802-820L802-820Q802-887 888-928Q974-969 1128-969L1128-969Q1238-969 1261-901Q1284-833 1241-716L1241-716L1108-358Q1083-291 1090-264Q1097-237 1117-237L1117-237Q1129-237 1140-243Q1151-249 1169-263L1169-263Q1193-283 1208-286.500Q1223-290 1238-282Z" fill="#FBF7F2"></path></g></g>
</g>
</svg>