<?xml version="1.0"?>
<svg xmlns="http://www.w3.org/2000/svg" viewBox="0 0 1024 1024" width="1024" height="1024">
<defs><clipPath id="sq"><rect x="0" y="0" width="1024" height="1024" rx="229" ry="229"></rect></clipPath></defs>
<defs><clipPath id="sq"><rect x="0" y="0" width="1024" height="1024" rx="229" ry="229"></rect></clipPath></defs>
<g clip-path="url(#sq)">
<defs><linearGradient id="oc_0" x1="102" y1="0" x2="922" y2="1024" gradientUnits="userSpaceOnUse">
<stop offset="0" stop-color="#2E7DF0"></stop><stop offset="0.54" stop-color="#37AEEC"></stop><stop offset="1" stop-color="#3FD6DE"></stop></linearGradient></defs>
<rect width="1024" height="1024" fill="url(#oc_0)"></rect>
</g>
<defs><clipPath id="sq"><rect x="0" y="0" width="1024" height="1024" rx="229" ry="229"></rect></clipPath></defs>
<g clip-path="url(#sq)">
<path d="M297 271 L297 547 A215 215 0 0 0 727 547 L727 271 A9 9 0 0 0 718 262 L605 262 L605 547 A93 93 0 0 1 419 547 L419 262 L306 262 A9 9 0 0 0 297 271 Z" fill="#FFFFFF"></path>
</g>
<defs><clipPath id="sq"><rect x="0" y="0" width="1024" height="1024" rx="229" ry="229"></rect></clipPath></defs>
<g clip-path="url(#sq)">
<defs><radialGradient id="sh_2" cx="512" cy="-61" r="348" gradientUnits="userSpaceOnUse" gradientTransform="translate(512 -61) scale(2.207 1) translate(-512 61)">
<stop offset="0" stop-color="#FFFFFF" stop-opacity="0.9"></stop><stop offset="0.66" stop-color="#FFFFFF" stop-opacity="0"></stop></radialGradient></defs>
<rect width="1024" height="1024" fill="url(#sh_2)" opacity="0.2"></rect>
</g>
</svg>