<?xml version="1.0"?>
<svg xmlns="http://www.w3.org/2000/svg" viewBox="0 0 1024 1024" width="1024" height="1024">
<defs><clipPath id="sq"><rect x="0" y="0" width="1024" height="1024" rx="229" ry="229"></rect></clipPath></defs>
<g clip-path="url(#sq)">
<path d="M305 493 H887 A19 19 0 0 1 906 512 V512 A19 19 0 0 1 887 531 H305 A19 19 0 0 1 286 512 V512 A19 19 0 0 1 305 493 Z" fill="#FF453A"></path>
<rect x="88" y="445.5" width="19" height="19" fill="#FF453A"></rect><rect x="107" y="445.5" width="19" height="19" fill="#FF453A"></rect><rect x="107" y="464.5" width="19" height="19" fill="#FF453A"></rect><rect x="126" y="464.5" width="19" height="19" fill="#FF453A"></rect><rect x="164" y="464.5" width="19" height="19" fill="#FF453A"></rect><rect x="183" y="464.5" width="19" height="19" fill="#FF453A"></rect><rect x="202" y="464.5" width="19" height="19" fill="#FF453A"></rect><rect x="126" y="483.5" width="19" height="19" fill="#FF453A"></rect><rect x="164" y="483.5" width="19" height="19" fill="#FF453A"></rect><rect x="183" y="483.5" width="19" height="19" fill="#FF453A"></rect><rect x="221" y="483.5" width="19" height="19" fill="#FF453A"></rect><rect x="107" y="502.5" width="19" height="19" fill="#FF453A"></rect><rect x="145" y="502.5" width="19" height="19" fill="#FF453A"></rect><rect x="164" y="502.5" width="19" height="19" fill="#FF453A"></rect><rect x="183" y="502.5" width="19" height="19" fill="#FF453A"></rect><rect x="202" y="502.5" width="19" height="19" fill="#FF453A"></rect><rect x="240" y="502.5" width="19" height="19" fill="#FF453A"></rect><rect x="259" y="502.5" width="19" height="19" fill="#FF453A"></rect><rect x="126" y="521.5" width="19" height="19" fill="#FF453A"></rect><rect x="164" y="521.5" width="19" height="19" fill="#FF453A"></rect><rect x="183" y="521.5" width="19" height="19" fill="#FF453A"></rect><rect x="221" y="521.5" width="19" height="19" fill="#FF453A"></rect><rect x="107" y="540.5" width="19" height="19" fill="#FF453A"></rect><rect x="126" y="540.5" width="19" height="19" fill="#FF453A"></rect><rect x="164" y="540.5" width="19" height="19" fill="#FF453A"></rect><rect x="183" y="540.5" width="19" height="19" fill="#FF453A"></rect><rect x="202" y="540.5" width="19" height="19" fill="#FF453A"></rect><rect x="88" y="559.5" width="19" height="19" fill="#FF453A"></rect><rect x="107" y="559.5" width="19" height="19" fill="#FF453A"></rect>
</g>
</svg>